<?xml version="1.0" standalone="no"?>
<!DOCTYPE svg PUBLIC "-//W3C//DTD SVG 20010904//EN"
 "http://www.w3.org/TR/2001/REC-SVG-20010904/DTD/svg10.dtd">
<svg version="1.0" xmlns="http://www.w3.org/2000/svg"
 width="50.000000pt" height="50.000000pt" viewBox="0 0 50.000000 50.000000"
 preserveAspectRatio="xMidYMid meet">
<metadata>
Created by potrace 1.10, written by Peter Selinger 2001-2011
</metadata>
<g transform="translate(0.000000,50.000000) scale(0.100000,-0.100000)"
fill="#000000" stroke="none">
<path d="M216 446 c3 -7 -6 -20 -20 -30 -57 -37 -45 -128 19 -144 42 -11 47
-47 7 -55 -41 -8 -92 -54 -92 -83 0 -14 11 -32 29 -45 17 -12 27 -28 24 -35
-4 -11 8 -14 51 -14 33 0 56 4 56 11 0 6 16 25 35 43 46 44 46 74 -1 126 l-36
40 26 31 c29 35 33 74 10 107 -14 21 -14 22 10 22 19 0 26 5 26 20 0 18 -7 20
-75 20 -58 0 -73 -3 -69 -14z m50 -34 c31 -21 45 -97 22 -120 -46 -46 -121 62
-78 113 13 16 38 19 56 7z m60 -264 c10 -34 -39 -72 -84 -64 -63 10 -91 56
-54 88 35 31 75 37 104 16 15 -10 30 -28 34 -40z"/>
<path d="M102 130 c0 -14 2 -19 5 -12 2 6 2 18 0 25 -3 6 -5 1 -5 -13z"/>
</g>
</svg>
